REM DIRINDEX 1\2,1\3,1\4
REM DIRNAME folder01,folder02,folder03,folder04
TITLE ""
FILE "134 134_TOEFL_3900.mp3" MP3
  TRACK 01 AUDIO
    TITLE "2:cjc151_5823"
    INDEX 01 00:00:00
  TRACK 02 AUDIO
    TITLE "0:"
    INDEX 01 00:01:07
  TRACK 03 AUDIO
    TITLE "3:cjc151_5824"
    INDEX 01 00:02:57
  TRACK 04 AUDIO
    TITLE "0:"
    INDEX 01 00:06:39
  TRACK 05 AUDIO
    TITLE "2:cjc151_5825"
    INDEX 01 00:08:19
  TRACK 06 AUDIO
    TITLE "0:"
    INDEX 01 00:09:38
  TRACK 07 AUDIO
    TITLE "3:cjc151_5826"
    INDEX 01 00:11:15
  TRACK 08 AUDIO
    TITLE "0:"
    INDEX 01 00:15:13
  TRACK 09 AUDIO
    TITLE "2:cjc151_5827"
    INDEX 01 00:16:65
  TRACK 10 AUDIO
    TITLE "0:"
    INDEX 01 00:18:03
  TRACK 11 AUDIO
    TITLE "3:cjc151_5828"
    INDEX 01 00:19:58
  TRACK 12 AUDIO
    TITLE "0:"
    INDEX 01 00:23:61
  TRACK 13 AUDIO
    TITLE "2:cjc151_5829"
    INDEX 01 00:25:41
  TRACK 14 AUDIO
    TITLE "0:"
    INDEX 01 00:26:73
  TRACK 15 AUDIO
    TITLE "3:cjc151_5830"
    INDEX 01 00:28:53
  TRACK 16 AUDIO
    TITLE "0:"
    INDEX 01 00:33:05
  TRACK 17 AUDIO
    TITLE "2:cjc151_5831"
    INDEX 01 00:34:57
  TRACK 18 AUDIO
    TITLE "0:"
    INDEX 01 00:35:70
  TRACK 19 AUDIO
    TITLE "3:cjc151_5832"
    INDEX 01 00:37:50
  TRACK 20 AUDIO
    TITLE "0:"
    INDEX 01 00:41:12
  TRACK 21 AUDIO
    TITLE "2:cjc151_5833"
    INDEX 01 00:42:63
  TRACK 22 AUDIO
    TITLE "0:"
    INDEX 01 00:43:74
  TRACK 23 AUDIO
    TITLE "3:cjc151_5834"
    INDEX 01 00:45:53
  TRACK 24 AUDIO
    TITLE "0:"
    INDEX 01 00:49:53
  TRACK 25 AUDIO
    TITLE "2:cjc151_5835"
    INDEX 01 00:51:34
  TRACK 26 AUDIO
    TITLE "0:"
    INDEX 01 00:52:36
  TRACK 27 AUDIO
    TITLE "3:cjc151_5836"
    INDEX 01 00:54:13
  TRACK 28 AUDIO
    TITLE "0:"
    INDEX 01 00:58:18
  TRACK 29 AUDIO
    TITLE "2:cjc151_5837"
    INDEX 01 00:59:71
  TRACK 30 AUDIO
    TITLE "0:"
    INDEX 01 01:01:21
  TRACK 31 AUDIO
    TITLE "3:cjc151_5838"
    INDEX 01 01:02:73
  TRACK 32 AUDIO
    TITLE "0:"
    INDEX 01 01:07:14
  TRACK 33 AUDIO
    TITLE "2:cjc151_5839"
    INDEX 01 01:08:68
  TRACK 34 AUDIO
    TITLE "0:"
    INDEX 01 01:09:69
  TRACK 35 AUDIO
    TITLE "3:cjc151_5840"
    INDEX 01 01:11:51
  TRACK 36 AUDIO
    TITLE "0:"
    INDEX 01 01:16:05
  TRACK 37 AUDIO
    TITLE "2:cjc151_5841"
    INDEX 01 01:17:59
  TRACK 38 AUDIO
    TITLE "0:"
    INDEX 01 01:18:74
  TRACK 39 AUDIO
    TITLE "3:cjc151_5842"
    INDEX 01 01:20:51
  TRACK 40 AUDIO
    TITLE "0:"
    INDEX 01 01:24:39
  TRACK 41 AUDIO
    TITLE "2:cjc151_5843"
    INDEX 01 01:26:19
  TRACK 42 AUDIO
    TITLE "0:"
    INDEX 01 01:27:24
  TRACK 43 AUDIO
    TITLE "3:cjc151_5844"
    INDEX 01 01:29:03
  TRACK 44 AUDIO
    TITLE "0:"
    INDEX 01 01:33:29
  TRACK 45 AUDIO
    TITLE "2:cjc151_5845"
    INDEX 01 01:35:06
  TRACK 46 AUDIO
    TITLE "0:"
    INDEX 01 01:36:17
  TRACK 47 AUDIO
    TITLE "3:cjc151_5846"
    INDEX 01 01:37:69
  TRACK 48 AUDIO
    TITLE "0:"
    INDEX 01 01:40:68
  TRACK 49 AUDIO
    TITLE "2:cjc151_5847"
    INDEX 01 01:42:45
  TRACK 50 AUDIO
    TITLE "0:"
    INDEX 01 01:43:64
  TRACK 51 AUDIO
    TITLE "3:cjc151_5848"
    INDEX 01 01:45:44
  TRACK 52 AUDIO
    TITLE "0:"
    INDEX 01 01:49:02
  TRACK 53 AUDIO
    TITLE "2:cjc151_5849"
    INDEX 01 01:50:54
  TRACK 54 AUDIO
    TITLE "0:"
    INDEX 01 01:51:70
  TRACK 55 AUDIO
    TITLE "3:cjc151_5850"
    INDEX 01 01:53:47
  TRACK 56 AUDIO
    TITLE "0:"
    INDEX 01 01:57:33
  TRACK 57 AUDIO
    TITLE "2:cjc151_5851"
    INDEX 01 01:59:12
  TRACK 58 AUDIO
    TITLE "0:"
    INDEX 01 02:00:29
  TRACK 59 AUDIO
    TITLE "3:cjc151_5852"
    INDEX 01 02:02:09
  TRACK 60 AUDIO
    TITLE "0:"
    INDEX 01 02:06:26
  TRACK 61 AUDIO
    TITLE "2:cjc151_5853"
    INDEX 01 02:08:05
  TRACK 62 AUDIO
    TITLE "0:"
    INDEX 01 02:09:17
  TRACK 63 AUDIO
    TITLE "3:cjc151_5854"
    INDEX 01 02:10:71
  TRACK 64 AUDIO
    TITLE "0:"
    INDEX 01 02:14:04
  TRACK 65 AUDIO
    TITLE "2:cjc151_5855"
    INDEX 01 02:15:58
  TRACK 66 AUDIO
    TITLE "0:"
    INDEX 01 02:17:12
  TRACK 67 AUDIO
    TITLE "3:cjc151_5856"
    INDEX 01 02:18:66
  TRACK 68 AUDIO
    TITLE "0:"
    INDEX 01 02:22:72
  TRACK 69 AUDIO
    TITLE "2:cjc151_5857"
    INDEX 01 02:24:51
  TRACK 70 AUDIO
    TITLE "0:"
    INDEX 01 02:26:01
  TRACK 71 AUDIO
    TITLE "3:cjc151_5858"
    INDEX 01 02:27:56
  TRACK 72 AUDIO
    TITLE "0:"
    INDEX 01 02:31:30
  TRACK 73 AUDIO
    TITLE "2:cjc151_5859"
    INDEX 01 02:33:07
  TRACK 74 AUDIO
    TITLE "0:"
    INDEX 01 02:34:40
  TRACK 75 AUDIO
    TITLE "3:cjc151_5860"
    INDEX 01 02:36:19
  TRACK 76 AUDIO
    TITLE "0:"
    INDEX 01 02:40:72
  TRACK 77 AUDIO
    TITLE "2:cjc151_5861"
    INDEX 01 02:42:49
  TRACK 78 AUDIO
    TITLE "0:"
    INDEX 01 02:43:55
  TRACK 79 AUDIO
    TITLE "3:cjc151_5862"
    INDEX 01 02:45:30
  TRACK 80 AUDIO
    TITLE "0:"
    INDEX 01 02:48:54
  TRACK 81 AUDIO
    TITLE "2:cjc151_5863"
    INDEX 01 02:50:31
  TRACK 82 AUDIO
    TITLE "0:"
    INDEX 01 02:51:27
  TRACK 83 AUDIO
    TITLE "3:cjc151_5864"
    INDEX 01 02:53:06
  TRACK 84 AUDIO
    TITLE "0:"
    INDEX 01 02:56:59
  TRACK 85 AUDIO
    TITLE "2:cjc151_5865"
    INDEX 01 02:58:39
  TRACK 86 AUDIO
    TITLE "0:"
    INDEX 01 02:59:65
  TRACK 87 AUDIO
    TITLE "3:cjc151_5866"
    INDEX 01 03:01:45
  TRACK 88 AUDIO
    TITLE "0:"
    INDEX 01 03:06:50
